<?xml version="1.0" encoding="UTF-8" standalone="no"?>
<!-- Created with Inkscape (http://www.inkscape.org/) -->

<svg
   xmlns:dc="http://purl.org/dc/elements/1.1/"
   xmlns:cc="http://creativecommons.org/ns#"
   xmlns:rdf="http://www.w3.org/1999/02/22-rdf-syntax-ns#"
   xmlns:svg="http://www.w3.org/2000/svg"
   xmlns="http://www.w3.org/2000/svg"
   xmlns:sodipodi="http://sodipodi.sourceforge.net/DTD/sodipodi-0.dtd"
   xmlns:inkscape="http://www.inkscape.org/namespaces/inkscape"
   width="196.32634mm"
   height="153.45833mm"
   viewBox="0 0 196.32633 153.45833"
   version="1.1"
   id="svg8"
   inkscape:version="0.92.3 (2405546, 2018-03-11)"
   sodipodi:docname="logo.svg">
  <defs
     id="defs2">
    <inkscape:path-effect
       effect="spiro"
       id="path-effect821"
       is_visible="true" />
    <inkscape:path-effect
       effect="spiro"
       id="path-effect817"
       is_visible="true" />
    <inkscape:path-effect
       effect="spiro"
       id="path-effect851"
       is_visible="true" />
    <inkscape:path-effect
       effect="spiro"
       id="path-effect851-0"
       is_visible="true" />
    <inkscape:path-effect
       effect="spiro"
       id="path-effect851-0-0"
       is_visible="true" />
  </defs>
  <sodipodi:namedview
     id="base"
     pagecolor="#ffffff"
     bordercolor="#666666"
     borderopacity="1.0"
     inkscape:pageopacity="0.0"
     inkscape:pageshadow="2"
     inkscape:zoom="1"
     inkscape:cx="265.01464"
     inkscape:cy="236.27103"
     inkscape:document-units="mm"
     inkscape:current-layer="layer1"
     showgrid="false"
     inkscape:window-width="1920"
     inkscape:window-height="1013"
     inkscape:window-x="-9"
     inkscape:window-y="-9"
     inkscape:window-maximized="1" />
  <metadata
     id="metadata5">
    <rdf:RDF>
      <cc:Work
         rdf:about="">
        <dc:format>image/svg+xml</dc:format>
        <dc:type
           rdf:resource="http://purl.org/dc/dcmitype/StillImage" />
        <dc:title />
      </cc:Work>
    </rdf:RDF>
  </metadata>
  <g
     inkscape:label="Layer 1"
     inkscape:groupmode="layer"
     id="layer1"
     transform="translate(-6.2333976,-72.112239)">
    <path
       style="fill:none;stroke:#000000;stroke-width:0.26458332px;stroke-linecap:butt;stroke-linejoin:miter;stroke-opacity:1"
       d="m 130.68192,155.04118 v 0"
       id="path831"
       inkscape:connector-curvature="0" />
    <flowRoot
       xml:space="preserve"
       id="flowRoot881"
       style="font-style:normal;font-variant:normal;font-weight:normal;font-stretch:normal;font-size:192px;line-height:1.25;font-family:sans-serif;-inkscape-font-specification:'sans-serif, Normal';font-variant-ligatures:normal;font-variant-caps:normal;font-variant-numeric:normal;font-feature-settings:normal;text-align:start;letter-spacing:0px;word-spacing:0px;writing-mode:lr-tb;text-anchor:start;fill:#000000;fill-opacity:1;stroke:none"
       transform="scale(0.26458333)"><flowRegion
         id="flowRegion883"><rect
           id="rect885"
           width="114.28571"
           height="214.28572"
           x="-997.14288"
           y="102.51968" /></flowRegion><flowPara
         id="flowPara887">йй</flowPara></flowRoot>    <text
       xml:space="preserve"
       style="font-style:normal;font-variant:normal;font-weight:normal;font-stretch:normal;font-size:50.79999924px;line-height:1.25;font-family:sans-serif;-inkscape-font-specification:'sans-serif, Normal';font-variant-ligatures:normal;font-variant-caps:normal;font-variant-numeric:normal;font-feature-settings:normal;text-align:start;letter-spacing:0px;word-spacing:0px;writing-mode:lr-tb;text-anchor:start;fill:#ff0000;fill-opacity:1;stroke:none;stroke-width:0.26458332"
       x="-244.17261"
       y="49.80357"
       id="text891"><tspan
         sodipodi:role="line"
         x="-244.17261"
         y="94.749664"
         style="fill:#ff0000;stroke-width:0.26458332"
         id="tspan907" /></text>
    <flowRoot
       xml:space="preserve"
       id="flowRoot893"
       style="font-style:normal;font-variant:normal;font-weight:normal;font-stretch:normal;font-size:192px;line-height:1.25;font-family:sans-serif;-inkscape-font-specification:'sans-serif, Normal';font-variant-ligatures:normal;font-variant-caps:normal;font-variant-numeric:normal;font-feature-settings:normal;text-align:start;letter-spacing:0px;word-spacing:0px;writing-mode:lr-tb;text-anchor:start;fill:#000000;fill-opacity:1;stroke:none"
       transform="scale(0.26458333)"><flowRegion
         id="flowRegion895"><rect
           id="rect897"
           width="185.71428"
           height="228.57143"
           x="-997.14288"
           y="-26.051744" /></flowRegion><flowPara
         id="flowPara899" /><flowPara
         id="flowPara901" /><flowPara
         id="flowPara903" /><flowPara
         id="flowPara905" /></flowRoot>    <text
       xml:space="preserve"
       style="font-style:normal;font-variant:normal;font-weight:normal;font-stretch:normal;font-size:50.79999924px;line-height:1.25;font-family:sans-serif;-inkscape-font-specification:'sans-serif, Normal';font-variant-ligatures:normal;font-variant-caps:normal;font-variant-numeric:normal;font-feature-settings:normal;text-align:start;letter-spacing:0px;word-spacing:0px;writing-mode:lr-tb;text-anchor:start;fill:#000000;fill-opacity:1;stroke:none;stroke-width:0.26458332"
       x="-232.83333"
       y="84.577377"
       id="text913"><tspan
         sodipodi:role="line"
         id="tspan911"
         x="-232.83333"
         y="129.52347"
         style="stroke-width:0.26458332" /></text>
    <text
       xml:space="preserve"
       style="font-style:normal;font-variant:normal;font-weight:normal;font-stretch:normal;font-size:50.79999924px;line-height:1.25;font-family:sans-serif;-inkscape-font-specification:'sans-serif, Normal';font-variant-ligatures:normal;font-variant-caps:normal;font-variant-numeric:normal;font-feature-settings:normal;text-align:start;letter-spacing:0px;word-spacing:0px;writing-mode:lr-tb;text-anchor:start;fill:#ff0000;fill-opacity:1;stroke:none;stroke-width:0.26458332"
       x="-252.48808"
       y="82.309517"
       id="text917"><tspan
         sodipodi:role="line"
         id="tspan915"
         x="-252.48808"
         y="127.25561"
         style="fill:#ff0000;stroke-width:0.26458332" /></text>
    <flowRoot
       xml:space="preserve"
       id="flowRoot919"
       style="font-style:normal;font-variant:normal;font-weight:normal;font-stretch:normal;font-size:192px;line-height:1.25;font-family:sans-serif;-inkscape-font-specification:'sans-serif, Normal';font-variant-ligatures:normal;font-variant-caps:normal;font-variant-numeric:normal;font-feature-settings:normal;text-align:start;letter-spacing:0px;word-spacing:0px;writing-mode:lr-tb;text-anchor:start;fill:#000000;fill-opacity:1;stroke:none"
       transform="scale(0.26458333)"><flowRegion
         id="flowRegion921"><rect
           id="rect923"
           width="120"
           height="254.28572"
           x="-1071.4286"
           y="62.519684" /></flowRegion><flowPara
         id="flowPara925">йййййй</flowPara></flowRoot>    <text
       xml:space="preserve"
       style="font-style:normal;font-variant:normal;font-weight:normal;font-stretch:normal;font-size:50.79999924px;line-height:1.25;font-family:sans-serif;-inkscape-font-specification:'sans-serif, Normal';font-variant-ligatures:normal;font-variant-caps:normal;font-variant-numeric:normal;font-feature-settings:normal;text-align:start;letter-spacing:0px;word-spacing:0px;writing-mode:lr-tb;text-anchor:start;fill:#000000;fill-opacity:1;stroke:none;stroke-width:0.26458332"
       x="-274.41074"
       y="49.047619"
       id="text929"><tspan
         sodipodi:role="line"
         id="tspan927"
         x="-274.41074"
         y="93.993713"
         style="stroke-width:0.26458332" /></text>
    <text
       xml:space="preserve"
       style="font-style:normal;font-variant:normal;font-weight:normal;font-stretch:normal;font-size:64.27471924px;line-height:1.25;font-family:sans-serif;-inkscape-font-specification:'sans-serif, Normal';font-variant-ligatures:normal;font-variant-caps:normal;font-variant-numeric:normal;font-feature-settings:normal;text-align:start;letter-spacing:0px;word-spacing:0px;writing-mode:lr-tb;text-anchor:start;fill:#00aa00;fill-opacity:1;stroke:none;stroke-width:0.33476415"
       x="71.116196"
       y="135.86668"
       id="text933"
       transform="scale(1.048854,0.95342154)"><tspan
         sodipodi:role="line"
         id="tspan931"
         x="71.116196"
         y="135.86668"
         style="fill:#00aa00;stroke-width:0.33476415">Й</tspan></text>
    <text
       xml:space="preserve"
       style="font-style:normal;font-variant:normal;font-weight:normal;font-stretch:normal;font-size:50.79999924px;line-height:1.25;font-family:sans-serif;-inkscape-font-specification:'sans-serif, Normal';font-variant-ligatures:normal;font-variant-caps:normal;font-variant-numeric:normal;font-feature-settings:normal;text-align:start;letter-spacing:0px;word-spacing:0px;writing-mode:lr-tb;text-anchor:start;fill:#ff0000;fill-opacity:1;stroke:none;stroke-width:0.26458332"
       x="-258.53571"
       y="145.05356"
       id="text937"><tspan
         sodipodi:role="line"
         id="tspan935"
         x="-258.53571"
         y="189.99965"
         style="fill:#ff0000;stroke-width:0.26458332" /></text>
    <flowRoot
       xml:space="preserve"
       id="flowRoot939"
       style="font-style:normal;font-variant:normal;font-weight:normal;font-stretch:normal;font-size:192px;line-height:1.25;font-family:sans-serif;-inkscape-font-specification:'sans-serif, Normal';font-variant-ligatures:normal;font-variant-caps:normal;font-variant-numeric:normal;font-feature-settings:normal;text-align:start;letter-spacing:0px;word-spacing:0px;writing-mode:lr-tb;text-anchor:start;fill:#000000;fill-opacity:1;stroke:none"
       transform="scale(0.26458333)"><flowRegion
         id="flowRegion941"><rect
           id="rect943"
           width="4.0650239"
           height="221.42493"
           x="-1077.1428"
           y="381.09476" /></flowRegion><flowPara
         id="flowPara945">вввв</flowPara></flowRoot>    <text
       xml:space="preserve"
       style="font-style:normal;font-variant:normal;font-weight:normal;font-stretch:normal;font-size:72.61348724px;line-height:1.25;font-family:sans-serif;-inkscape-font-specification:'sans-serif, Normal';font-variant-ligatures:normal;font-variant-caps:normal;font-variant-numeric:normal;font-feature-settings:normal;text-align:start;letter-spacing:0px;word-spacing:0px;writing-mode:lr-tb;text-anchor:start;fill:#ff0000;fill-opacity:1;stroke:none;stroke-width:0.37819526"
       x="72.311943"
       y="220.48091"
       id="text949"
       transform="scale(1.0035388,0.99647367)"><tspan
         sodipodi:role="line"
         id="tspan947"
         x="72.311943"
         y="220.48091"
         style="fill:#ff0000;stroke-width:0.37819526">В</tspan></text>
    <path
       style="fill:#ff0000;fill-opacity:0;stroke-width:0.75595242"
       d="m 178.56386,223.32761 c -24.97623,-13.13825 -42.12198,-37.58615 -45.81327,-65.32451 -1.26304,-9.49113 -0.25746,-24.24267 2.26547,-33.23385 5.67357,-20.21941 18.44385,-37.900462 35.34063,-48.930803 l 5.70798,-3.726208 h 10.28928 10.28929 l -5.17839,3.473911 c -11.21914,7.526338 -22.15272,20.046381 -28.3647,32.4804 -16.44306,32.91275 -10.46339,72.93463 14.79061,98.99339 5.82061,6.0061 9.82304,9.19373 17.93903,14.2871 l 6.72994,4.22353 h -9.86597 c -9.47582,0 -10.03459,-0.0887 -14.1299,-2.24296 z"
       id="path951"
       inkscape:connector-curvature="0" />
    <path
       style="fill:#ff0000;fill-opacity:0;stroke-width:0.75595242"
       d="m 178.56386,223.32761 c -24.97623,-13.13825 -42.12198,-37.58615 -45.81327,-65.32451 -1.26304,-9.49113 -0.25746,-24.24267 2.26547,-33.23385 5.67357,-20.21941 18.44385,-37.900462 35.34063,-48.930803 l 5.70798,-3.726208 h 10.28928 10.28929 l -5.17839,3.473911 c -11.21914,7.526338 -22.15272,20.046381 -28.3647,32.4804 -16.44306,32.91275 -10.46339,72.93463 14.79061,98.99339 5.82061,6.0061 9.82304,9.19373 17.93903,14.2871 l 6.72994,4.22353 h -9.86597 c -9.47582,0 -10.03459,-0.0887 -14.1299,-2.24296 z"
       id="path953"
       inkscape:connector-curvature="0" />
    <path
       style="fill:#ff0000;fill-opacity:0;stroke-width:0.75595242"
       d="m 178.56386,223.32761 c -24.97623,-13.13825 -42.12198,-37.58615 -45.81327,-65.32451 -1.26304,-9.49113 -0.25746,-24.24267 2.26547,-33.23385 5.67357,-20.21941 18.44385,-37.900462 35.34063,-48.930803 l 5.70798,-3.726208 h 10.28928 10.28929 l -5.17839,3.473911 c -11.21914,7.526338 -22.15272,20.046381 -28.3647,32.4804 -16.44306,32.91275 -10.46339,72.93463 14.79061,98.99339 5.82061,6.0061 9.82304,9.19373 17.93903,14.2871 l 6.72994,4.22353 h -9.86597 c -9.47582,0 -10.03459,-0.0887 -14.1299,-2.24296 z"
       id="path955"
       inkscape:connector-curvature="0" />
    <path
       style="fill:#ff0000;fill-opacity:0;stroke-width:0.75595242"
       d="m 178.56386,223.32761 c -24.97623,-13.13825 -42.12198,-37.58615 -45.81327,-65.32451 -1.26304,-9.49113 -0.25746,-24.24267 2.26547,-33.23385 5.67357,-20.21941 18.44385,-37.900462 35.34063,-48.930803 l 5.70798,-3.726208 h 10.28928 10.28929 l -5.17839,3.473911 c -11.21914,7.526338 -22.15272,20.046381 -28.3647,32.4804 -16.44306,32.91275 -10.46339,72.93463 14.79061,98.99339 5.82061,6.0061 9.82304,9.19373 17.93903,14.2871 l 6.72994,4.22353 h -9.86597 c -9.47582,0 -10.03459,-0.0887 -14.1299,-2.24296 z"
       id="path957"
       inkscape:connector-curvature="0" />
    <path
       style="fill:#ff0000;fill-opacity:0;stroke-width:0.75595242"
       d="m 178.56386,223.32761 c -24.97623,-13.13825 -42.12198,-37.58615 -45.81327,-65.32451 -1.26304,-9.49113 -0.25746,-24.24267 2.26547,-33.23385 5.67357,-20.21941 18.44385,-37.900462 35.34063,-48.930803 l 5.70798,-3.726208 h 10.28928 10.28929 l -5.17839,3.473911 c -11.21914,7.526338 -22.15272,20.046381 -28.3647,32.4804 -16.44306,32.91275 -10.46339,72.93463 14.79061,98.99339 5.82061,6.0061 9.82304,9.19373 17.93903,14.2871 l 6.72994,4.22353 h -9.86597 c -9.47582,0 -10.03459,-0.0887 -14.1299,-2.24296 z"
       id="path959"
       inkscape:connector-curvature="0" />
    <path
       style="fill:#ff0000;fill-opacity:0;stroke-width:0.75595242"
       d="m 178.56386,223.32761 c -24.97623,-13.13825 -42.12198,-37.58615 -45.81327,-65.32451 -1.26304,-9.49113 -0.25746,-24.24267 2.26547,-33.23385 5.67357,-20.21941 18.44385,-37.900462 35.34063,-48.930803 l 5.70798,-3.726208 h 10.28928 10.28929 l -5.17839,3.473911 c -11.21914,7.526338 -22.15272,20.046381 -28.3647,32.4804 -16.44306,32.91275 -10.46339,72.93463 14.79061,98.99339 5.82061,6.0061 9.82304,9.19373 17.93903,14.2871 l 6.72994,4.22353 h -9.86597 c -9.47582,0 -10.03459,-0.0887 -14.1299,-2.24296 z"
       id="path961"
       inkscape:connector-curvature="0" />
    <path
       style="fill:#ff0000;fill-opacity:0;stroke-width:0.75595242"
       d="m 178.56386,223.32761 c -24.97623,-13.13825 -42.12198,-37.58615 -45.81327,-65.32451 -1.26304,-9.49113 -0.25746,-24.24267 2.26547,-33.23385 5.67357,-20.21941 18.44385,-37.900462 35.34063,-48.930803 l 5.70798,-3.726208 h 10.28928 10.28929 l -5.17839,3.473911 c -11.21914,7.526338 -22.15272,20.046381 -28.3647,32.4804 -16.44306,32.91275 -10.46339,72.93463 14.79061,98.99339 5.82061,6.0061 9.82304,9.19373 17.93903,14.2871 l 6.72994,4.22353 h -9.86597 c -9.47582,0 -10.03459,-0.0887 -14.1299,-2.24296 z"
       id="path963"
       inkscape:connector-curvature="0" />
    <path
       style="fill:#ff0000;fill-opacity:0;stroke-width:0.75595242"
       d="m 178.56386,223.32761 c -24.97623,-13.13825 -42.12198,-37.58615 -45.81327,-65.32451 -1.26304,-9.49113 -0.25746,-24.24267 2.26547,-33.23385 5.67357,-20.21941 18.44385,-37.900462 35.34063,-48.930803 l 5.70798,-3.726208 h 10.28928 10.28929 l -5.17839,3.473911 c -11.21914,7.526338 -22.15272,20.046381 -28.3647,32.4804 -16.44306,32.91275 -10.46339,72.93463 14.79061,98.99339 5.82061,6.0061 9.82304,9.19373 17.93903,14.2871 l 6.72994,4.22353 h -9.86597 c -9.47582,0 -10.03459,-0.0887 -14.1299,-2.24296 z"
       id="path965"
       inkscape:connector-curvature="0" />
    <path
       style="fill:#ff0000;fill-opacity:0;stroke-width:0.75595242"
       d="m 178.56386,223.32761 c -24.97623,-13.13825 -42.12198,-37.58615 -45.81327,-65.32451 -1.26304,-9.49113 -0.25746,-24.24267 2.26547,-33.23385 5.67357,-20.21941 18.44385,-37.900462 35.34063,-48.930803 l 5.70798,-3.726208 h 10.28928 10.28929 l -5.17839,3.473911 c -11.21914,7.526338 -22.15272,20.046381 -28.3647,32.4804 -16.44306,32.91275 -10.46339,72.93463 14.79061,98.99339 5.82061,6.0061 9.82304,9.19373 17.93903,14.2871 l 6.72994,4.22353 h -9.86597 c -9.47582,0 -10.03459,-0.0887 -14.1299,-2.24296 z"
       id="path967"
       inkscape:connector-curvature="0" />
    <path
       style="fill:#ff0000;fill-opacity:0;stroke-width:0.75595242"
       d="m 178.56386,223.32761 c -24.97623,-13.13825 -42.12198,-37.58615 -45.81327,-65.32451 -1.26304,-9.49113 -0.25746,-24.24267 2.26547,-33.23385 5.67357,-20.21941 18.44385,-37.900462 35.34063,-48.930803 l 5.70798,-3.726208 h 10.28928 10.28929 l -5.17839,3.473911 c -11.21914,7.526338 -22.15272,20.046381 -28.3647,32.4804 -16.44306,32.91275 -10.46339,72.93463 14.79061,98.99339 5.82061,6.0061 9.82304,9.19373 17.93903,14.2871 l 6.72994,4.22353 h -9.86597 c -9.47582,0 -10.03459,-0.0887 -14.1299,-2.24296 z"
       id="path969"
       inkscape:connector-curvature="0" />
    <path
       style="fill:#ff0000;fill-opacity:0;stroke-width:0.75595242"
       d="m 178.56386,223.32761 c -24.97623,-13.13825 -42.12198,-37.58615 -45.81327,-65.32451 -1.26304,-9.49113 -0.25746,-24.24267 2.26547,-33.23385 5.67357,-20.21941 18.44385,-37.900462 35.34063,-48.930803 l 5.70798,-3.726208 h 10.28928 10.28929 l -5.17839,3.473911 c -11.21914,7.526338 -22.15272,20.046381 -28.3647,32.4804 -16.44306,32.91275 -10.46339,72.93463 14.79061,98.99339 5.82061,6.0061 9.82304,9.19373 17.93903,14.2871 l 6.72994,4.22353 h -9.86597 c -9.47582,0 -10.03459,-0.0887 -14.1299,-2.24296 z"
       id="path971"
       inkscape:connector-curvature="0" />
    <path
       style="fill:#ffffff;stroke-width:0.1889881"
       d="m 27.526559,223.07822 c -2.3907,-0.99762 -8.159674,-3.40558 -12.819944,-5.35101 L 6.2333976,214.19005 8.28102,213.10093 c 8.471925,-4.50616 15.052534,-9.50574 20.749483,-15.7643 7.608025,-8.35802 13.073216,-17.78733 16.602389,-28.64475 1.496587,-4.60421 2.363277,-8.41382 2.906311,-12.77494 0.489143,-3.9283 0.489143,-16.06795 0,-19.99625 C 47.616865,128.51337 45.192845,120.534 41.595094,113.06208 37.713239,105.00013 32.9088,98.286234 26.549462,92.03676 c -4.06024,-3.990095 -7.386281,-6.64428 -12.289367,-9.806932 -1.369728,-0.883519 -2.495544,-1.648921 -2.501813,-1.700893 -0.0124,-0.102759 11.053869,-3.709409 15.484795,-5.04671 1.507179,-0.454883 3.107616,-0.878538 3.556523,-0.941454 l 0.816194,-0.114394 2.302111,2.345559 c 4.995846,5.090142 11.420646,13.701805 15.210591,20.387951 3.428251,6.048063 6.883675,13.900193 9.067041,20.604023 4.913571,15.08669 6.394412,29.44674 4.559956,44.21889 -2.251787,18.13275 -9.750645,36.8866 -20.394491,51.00446 -3.319761,4.40329 -9.819817,11.94208 -10.274755,11.9167 -0.117131,-0.007 -2.168989,-0.82812 -4.559688,-1.82574 z"
       id="path150"
       inkscape:connector-curvature="0" />
    <path
       style="fill:#ececec;stroke-width:0.06681738"
       d="m 110.46963,154.8078 c -10.859487,-0.13855 -22.300297,-0.28524 -25.424007,-0.32598 -3.12371,-0.0407 -8.84656,-0.11053 -12.71743,-0.15508 l -7.037955,-0.081 0.04015,-0.4375 c 0.300167,-3.27045 0.376906,-9.17695 0.167068,-12.85873 -0.04851,-0.85111 -0.04992,-1.27636 -0.0043,-1.30455 0.03721,-0.023 3.639904,-0.12718 8.005994,-0.23152 4.36609,-0.10435 19.30399,-0.46606 33.19532,-0.8038 13.89133,-0.33775 25.26266,-0.61179 25.26962,-0.60898 0.007,0.003 -0.0294,0.42537 -0.0808,0.93904 -0.15252,1.52408 -0.29412,3.68758 -0.36728,5.61115 -0.0401,1.05446 -0.22764,3.60869 -0.45135,6.1472 l -0.38274,4.34313 -0.23386,0.009 c -0.12862,0.005 -9.1189,-0.10409 -19.9784,-0.24264 z"
       id="path148"
       inkscape:connector-curvature="0" />
    <path
       style="fill:#ffffff;stroke-width:0.20247824"
       d="m 173.69955,222.76634 c 2.74419,-0.99763 9.36615,-3.40558 14.71547,-5.35102 l 9.72605,-3.53715 -2.35039,-1.08912 c -9.72455,-4.50617 -17.27815,-9.50575 -23.81743,-15.7643 -8.73292,-8.35802 -15.00619,-17.78733 -19.05718,-28.64476 -1.71787,-4.60421 -2.7127,-8.41381 -3.33602,-12.77493 -0.56147,-3.9283 -0.56147,-16.06796 0,-19.99626 1.05871,-7.40732 3.84114,-15.38669 7.97084,-22.8586 4.45581,-8.06195 9.97062,-14.775842 17.27024,-21.025316 4.66057,-3.990095 8.47839,-6.64428 14.10644,-9.806933 1.57225,-0.883519 2.86452,-1.64892 2.87172,-1.700892 0.0142,-0.102759 -12.68827,-3.709409 -17.77433,-5.046711 -1.73003,-0.454883 -3.5671,-0.878537 -4.08239,-0.941454 l -0.93687,-0.114393 -2.64249,2.345559 c -5.73452,5.090141 -13.10927,13.701804 -17.45958,20.387948 -3.93515,6.048052 -7.90149,13.900182 -10.40767,20.604012 -5.64009,15.08669 -7.33988,29.44674 -5.23418,44.2189 2.58473,18.13274 11.19234,36.88659 23.40996,51.00446 3.81061,4.40328 11.27175,11.94207 11.79395,11.91669 0.13445,-0.007 2.48969,-0.82811 5.23386,-1.82573 z"
       id="path150-2"
       inkscape:connector-curvature="0" />
  </g>
</svg>
